<svg xmlns="http://www.w3.org/2000/svg" xmlns:xlink="http://www.w3.org/1999/xlink">
  <image width="310" height="150" xlink:href="https://ipfs.io/ipfs/bafkreig4op2kb3ros652lmzitec5ly76dkjtbh23poz2fkq6sscp67i4e4" />
  <g transform="matrix(1, 0, 0, 1, 80, 35)">
    <path class="st0"
      d="M29,10.2c-0.7-0.4-1.6-0.4-2.4,0L21,13.5l-3.8,2.1l-5.5,3.3c-0.7,0.4-1.6,0.4-2.4,0L5,16.3 c-0.7-0.4-1.2-1.2-1.2-2.1v-5c0-0.8,0.4-1.6,1.2-2.1l4.3-2.5c0.7-0.4,1.6-0.4,2.4,0L16,7.2c0.7,0.4,1.2,1.2,1.2,2.1v3.3l3.8-2.2V7 c0-0.8-0.4-1.6-1.2-2.1l-8-4.7c-0.7-0.4-1.6-0.4-2.4,0L1.2,5C0.4,5.4,0,6.2,0,7v9.4c0,0.8,0.4,1.6,1.2,2.1l8.1,4.7 c0.7,0.4,1.6,0.4,2.4,0l5.5-3.2l3.8-2.2l5.5-3.2c0.7-0.4,1.6-0.4,2.4,0l4.3,2.5c0.7,0.4,1.2,1.2,1.2,2.1v5c0,0.8-0.4,1.6-1.2,2.1 L29,28.8c-0.7,0.4-1.6,0.4-2.4,0l-4.3-2.5c-0.7-0.4-1.2-1.2-1.2-2.1V21l-3.8,2.2v3.3c0,0.8,0.4,1.6,1.2,2.1l8.1,4.7 c0.7,0.4,1.6,0.4,2.4,0l8.1-4.7c0.7-0.4,1.2-1.2,1.2-2.1V17c0-0.8-0.4-1.6-1.2-2.1L29,10.2z"
      style="fill: rgb(130, 71, 229);" />
  </g>
  <g transform="translate(202,58)">
    <rect width="100" height="40" fill="none" />
    <text x="50" y="21" alignment-baseline="middle" font-size="12" text-anchor="middle">0.05</text>
  </g>
  <g transform="translate(23,80)">
    <rect width="150" height="20" fill="none" />
    <text x="75" y="10" alignment-baseline="middle" font-size="12" text-anchor="middle">$0.0434</text>
  </g>
</svg>